<?xml version="1.0" encoding="utf-8"?>
<!-- Generator: Adobe Illustrator 19.2.1, SVG Export Plug-In . SVG Version: 6.00 Build 0)  -->
<svg version="1.1" id="Layer_1" xmlns="http://www.w3.org/2000/svg" xmlns:xlink="http://www.w3.org/1999/xlink" x="0px" y="0px"
	 viewBox="0 0 100 100" style="enable-background:new 0 0 100 100;" xml:space="preserve">
<style type="text/css">
	.st0{fill:#010101;}
</style>
<path class="st0" d="M86.4,1H13.6C6.7,1,1,6.1,1,13.6v72.8C1,93.9,6.7,99,13.6,99h72.8C93.3,99,99,93.9,99,86.4V13.6
	C99,6.1,93.3,1,86.4,1z M68,16.3c0-2.4,2-4.4,4.4-4.4h11.1c2.4,0,4.4,2,4.4,4.4v10.6c0,2.4-2,4.4-4.4,4.4H72.4c-2.4,0-4.4-2-4.4-4.4
	V16.3z M50.1,30.7c10.9,0,19.7,8.5,19.7,19.1S61,68.9,50.1,68.9c-10.9,0-19.7-8.5-19.7-19.1S39.2,30.7,50.1,30.7z M87.9,83.8
	c0,2.1-1.8,3.9-3.9,3.9H15.8c-2.1,0-3.9-1.8-3.9-3.9V42.4h9c-0.8,2.7-1.3,5.5-1.3,8.4c0,16.3,13.6,29.5,30.5,29.5
	c16.8,0,30.5-13.2,30.5-29.5c0-2.9-0.4-5.7-1.3-8.4h8.6h0V83.8z"/>
</svg>
