<?xml version="1.0" encoding="utf-8"?>
<!-- Generator: Adobe Illustrator 20.0.0, SVG Export Plug-In . SVG Version: 6.00 Build 0)  -->
<svg version="1.1" id="Layer_1" xmlns="http://www.w3.org/2000/svg" xmlns:xlink="http://www.w3.org/1999/xlink" x="0px" y="0px"
	 viewBox="0 0 100 100" style="enable-background:new 0 0 100 100;" xml:space="preserve">
<style type="text/css">
	.st0{fill:#010101;}
</style>
<g>
	<path class="st0" d="M94.9,9.2H5.1C2.6,9.2,1,10.8,1,13.2v8.2c0,2.5,1.6,4.1,4.1,4.1h89.8c2.4,0,4.1-1.6,4.1-4.1v-8.2
		C99,10.8,97.4,9.2,94.9,9.2z"/>
	<path class="st0" d="M94.9,41.8H5.1c-2.4,0-4.1,1.6-4.1,4.1v8.2c0,2.5,1.6,4.1,4.1,4.1h89.8c2.4,0,4.1-1.6,4.1-4.1v-8.2
		C99,43.5,97.4,41.8,94.9,41.8z"/>
	<path class="st0" d="M94.9,74.5H5.1c-2.4,0-4.1,1.6-4.1,4.1v8.2c0,2.5,1.6,4.1,4.1,4.1h89.8c2.4,0,4.1-1.6,4.1-4.1v-8.2
		C99,76.1,97.4,74.5,94.9,74.5z"/>
</g>
</svg>
