<?xml version="1.0" encoding="utf-8"?>
<!-- Generator: Adobe Illustrator 20.0.0, SVG Export Plug-In . SVG Version: 6.00 Build 0)  -->
<svg version="1.1" id="Layer_1" xmlns="http://www.w3.org/2000/svg" xmlns:xlink="http://www.w3.org/1999/xlink" x="0px" y="0px"
	 viewBox="0 0 100 100" style="enable-background:new 0 0 100 100;" xml:space="preserve">
<style type="text/css">
	.st0{fill:#010101;}
</style>
<g>
	<path class="st0" d="M65.1,50l33.2-33.2c0.8-0.8,0.8-2.1,0-2.9L86.1,1.6C85.7,1.2,85.2,1,84.6,1c-0.5,0-1.1,0.2-1.4,0.6L50,34.8
		L16.7,1.6c-0.8-0.8-2.1-0.8-2.9,0L1.6,13.8c-0.8,0.8-0.8,2.1,0,2.9L34.8,50L1.6,83.2c-0.8,0.8-0.8,2.1,0,2.9l12.3,12.3
		c0.4,0.4,0.9,0.6,1.4,0.6c0.5,0,1.1-0.2,1.4-0.6L50,65.1l33.2,33.2c0.4,0.4,0.9,0.6,1.4,0.6c0.5,0,1.1-0.2,1.4-0.6l12.3-12.3
		c0.8-0.8,0.8-2.1,0-2.9L65.1,50z"/>
</g>
</svg>
