<?xml version="1.0" encoding="utf-8"?>
<!-- Generator: Adobe Illustrator 19.2.1, SVG Export Plug-In . SVG Version: 6.00 Build 0)  -->
<svg version="1.1" id="Layer_1" xmlns="http://www.w3.org/2000/svg" xmlns:xlink="http://www.w3.org/1999/xlink" x="0px" y="0px"
	 viewBox="0 0 100 100" style="enable-background:new 0 0 100 100;" xml:space="preserve">
<style type="text/css">
	.st0{fill:#040305;}
</style>
<g>
	<g>
		<path class="st0" d="M99,19.6c-3.6,1.6-7.5,2.7-11.5,3.2c4.2-2.5,7.3-6.4,8.8-11.1c-3.9,2.3-8.2,4-12.8,4.9
			c-3.7-3.9-8.9-6.4-14.7-6.4c-11.1,0-20.1,9-20.1,20.1c0,1.6,0.2,3.1,0.5,4.6C32.6,34,17.7,26,7.8,13.9c-1.7,3-2.7,6.4-2.7,10.1
			c0,7,3.6,13.1,8.9,16.7c-3.3-0.1-6.4-1-9.1-2.5v0.3c0,9.7,6.9,17.9,16.1,19.7c-1.7,0.5-3.5,0.7-5.3,0.7c-1.3,0-2.6-0.1-3.8-0.4
			c2.6,8,10,13.8,18.8,14c-6.9,5.4-15.5,8.6-25,8.6c-1.6,0-3.2-0.1-4.8-0.3c8.9,5.7,19.5,9,30.8,9c37,0,57.2-30.6,57.2-57.2L88.9,30
			C92.9,27.2,96.3,23.6,99,19.6z"/>
	</g>
</g>
</svg>
