<?xml version="1.0" encoding="utf-8"?>
<!-- Generator: Adobe Illustrator 19.2.1, SVG Export Plug-In . SVG Version: 6.00 Build 0)  -->
<svg version="1.1" id="Layer_1" xmlns="http://www.w3.org/2000/svg" xmlns:xlink="http://www.w3.org/1999/xlink" x="0px" y="0px"
	 viewBox="0 0 100 100" style="enable-background:new 0 0 100 100;" xml:space="preserve">
<style type="text/css">
	.st0{fill:#010101;}
</style>
<g>
	<polygon class="st0" points="29,39.4 34.9,39.4 34.9,18.7 42,1 35.5,1 31.7,14.2 27.9,1 21.4,1 29,18.7 	"/>
	<path class="st0" d="M60.7,36.6c0.3,0.7,0.7,1.3,1.4,1.7c0.6,0.4,1.4,0.6,2.3,0.6c0.8,0,1.5-0.2,2.2-0.7c0.6-0.5,1.2-1.1,1.6-2
		l-0.1,2.2h6.3V11.6h-5v21c0,1.1-0.9,2.1-2.1,2.1c-1.1,0-2.1-0.9-2.1-2.1v-21h-5.2v18.2c0,2.3,0,3.9,0.1,4.6
		C60.2,35.2,60.4,35.9,60.7,36.6z"/>
	<path class="st0" d="M41.5,28.6c0,2.4,0.1,4.1,0.4,5.3c0.2,1.2,0.6,2.2,1.2,3c0.6,0.8,1.3,1.5,2.3,1.9c1,0.4,2.2,0.6,3.7,0.6
		c1.3,0,2.4-0.2,3.4-0.7c1-0.5,1.8-1.2,2.4-2.2c0.6-1,1.1-2.1,1.2-3.3c0.2-1.2,0.3-3,0.3-5.5v-6.8c0-2-0.1-3.4-0.3-4.4
		c-0.2-1-0.6-1.9-1.2-2.8c-0.6-0.9-1.4-1.6-2.4-2.2c-1-0.6-2.3-0.9-3.8-0.9c-1.7,0-3.2,0.4-4.3,1.3c-1.1,0.9-1.9,2-2.3,3.5
		c-0.4,1.5-0.6,3.5-0.6,6.1L41.5,28.6z M46.5,17.8c0-1.5,1.1-2.8,2.5-2.8c1.4,0,2.5,1.2,2.5,2.8v14.3c0,1.5-1.1,2.8-2.5,2.8
		c-1.4,0-2.5-1.2-2.5-2.8V17.8z"/>
	<path class="st0" d="M77.5,44.9H22.5c-7.4,0-13.4,5.7-13.4,12.6v28.9c0,6.9,6,12.6,13.4,12.6h54.9c7.3,0,13.4-5.7,13.4-12.6V57.5
		C90.8,50.6,84.8,44.9,77.5,44.9z M20.5,89.5V59l-5.7,0v-4.4l18.2,0v4.5l-6.8,0l0,30.4H20.5z M42.1,89.5l0-3.4
		c-1.2,2.6-6.1,4.7-8.7,2.9c-1.4-1-1.3-2.7-1.5-4.2c-0.1-0.8,0-2.7,0-5.1l0-16.1h5.6l0,16.4c0,2.2-0.1,3.5,0,4
		c0.8,2.5,2.9,1.1,3.3-0.1c0.2-0.4,0-1.6,0-3.9V63.6h5.7l0,25.9L42.1,89.5z M55.1,87.1l-0.4,2.2L50,89.3l0-34.7l5.7,0l0,10.1
		c5.2-4.2,9.1-1.1,9.1,4.1l0,13.5C64.8,88.8,61,92.5,55.1,87.1z M68.2,80.5v-8.1c0-2.4,0.2-4.3,0.7-5.7c0.5-1.4,1.3-2.4,2.4-3.2
		c3.4-2.5,10.2-1.7,10.9,3.1c0.2,1.5,0.3,4.2,0.3,6.9v3.7h-9.7v3.4v2.6v0.3c0,1.3,1.1,2.3,2.3,2.3H76c1.3,0,2.3-1,2.3-2.3V81
		c0-0.2,0-0.4,0-0.6l4.3,0C84.5,92,68.2,93.9,68.2,80.5z"/>
	<path class="st0" d="M58.1,66c-1.4,0-2.5,0.9-2.5,2v15.2c0,1.1,1.1,2,2.5,2c1.4,0,2.5-0.9,2.5-2V68C60.6,66.9,59.4,66,58.1,66z"/>
	<path class="st0" d="M78.3,69.6c0-1.4-1.1-2.5-2.5-2.5h-0.3c-1.4,0-2.5,1.1-2.5,2.5l0,3.1h5.4L78.3,69.6z"/>
</g>
</svg>
