<svg width="264px" height="54px" viewBox="35 33 264 54" version="1.1" xmlns="http://www.w3.org/2000/svg" xmlns:xlink="http://www.w3.org/1999/xlink">
  <g id="logo" opacity="0.813462409" stroke="none" stroke-width="1" fill="none" fill-rule="evenodd" transform="translate(38.000000, 34.000000)">
    <g id="Group-5" transform="translate(0.000000, 0.019005)" stroke="#FFFFFF" stroke-width="2">
      <path d="M32.6831535,27.0376728 L22.9894563,37.1333288 L22.9894563,6.94926156 L32.7119915,6.94926156 L32.7119915,26.9323288 L32.6831535,27.0376728 Z M6.33013944,6.94926156 L0.101949296,0.117100269 L6.33013944,6.94926156 Z M0.101949296,30.8778449 L19.772231,50.1938234 L38.9401817,30.8778449 L38.9401817,0.117100269 L0.150012676,0.117100269 L0.0975549296,0.117100269 L5.1129,5.66178306 L6.37847746,6.94926156 L16.0301535,6.94926156 L16.0301535,37.1107938 L6.33013944,26.9323288 L0.101949296,30.8778449 Z" id="Stroke-1"></path>
      <path d="M38.9120577,0.0505543011 L32.6220718,7.05430699" id="Stroke-3"></path>
    </g>
    <path d="M22.9652324,36.9897024 L23.4652324,46.7541218" id="Stroke-6" stroke="#FFFFFF" stroke-width="2"></path>
    <text id="Justice-Democrats" font-family="RobotoCondensed-Bold, Roboto Condensed" font-size="22" font-style="condensed" font-weight="bold">
      <tspan x="64" y="28" fill="#FFFFFF">Justice </tspan>
      <tspan x="132.083984" y="28" fill="#F6FF00">Democrats</tspan>
    </text>
  </g>
</svg>
