<?xml version="1.0" encoding="UTF-8"?><!DOCTYPE svg PUBLIC "-//W3C//DTD SVG 1.1//EN" "http://www.w3.org/Graphics/SVG/1.1/DTD/svg11.dtd"><svg xmlns="http://www.w3.org/2000/svg"><symbol id="caret-down" viewBox="0 0 100 100"><style>.st0{fill:#010101}</style><path class="st0" d="M97.2 24.9c-1.2-1.2-2.6-1.8-4.3-1.8H7.1c-1.7 0-3.1.6-4.3 1.8C1.6 26.1 1 27.5 1 29.2c0 1.7.6 3.1 1.8 4.3l42.9 42.9c1.2 1.2 2.6 1.8 4.3 1.8s3.1-.6 4.3-1.8l42.9-42.9c1.2-1.2 1.8-2.6 1.8-4.3 0-1.7-.6-3.1-1.8-4.3z"/></symbol><symbol id="caret-left" viewBox="0 0 100 100"><style>.st0{fill:#010101}</style><path class="st0" d="M76.3 97.2c1.2-1.2 1.8-2.6 1.8-4.3V7.1c0-1.7-.6-3.1-1.8-4.3C75.1 1.6 73.7 1 72 1c-1.7 0-3.1.6-4.3 1.8L24.8 45.7C23.6 46.9 23 48.3 23 50s.6 3.1 1.8 4.3l42.9 42.9c1.2 1.2 2.6 1.8 4.3 1.8 1.7 0 3.1-.6 4.3-1.8z"/></symbol><symbol id="caret-right" viewBox="0 0 100 100"><style>.st0{fill:#010101}</style><path class="st0" d="M29.1 99c1.7 0 3.1-.6 4.3-1.8l42.9-42.9c1.2-1.2 1.8-2.6 1.8-4.3s-.6-3.1-1.8-4.3L33.4 2.8C32.2 1.6 30.8 1 29.1 1c-1.7 0-3.1.6-4.3 1.8C23.6 4 23 5.5 23 7.1v85.7c0 1.7.6 3.1 1.8 4.3 1.2 1.3 2.7 1.9 4.3 1.9z"/></symbol><symbol id="caret-up" viewBox="0 0 100 100"><style>.st0{fill:#010101}</style><path class="st0" d="M99 72.1c0-1.7-.6-3.1-1.8-4.3L54.3 24.9c-1.2-1.2-2.6-1.8-4.3-1.8s-3.1.6-4.3 1.8L2.8 67.8C1.6 69 1 70.4 1 72.1c0 1.7.6 3.1 1.8 4.3 1.2 1.2 2.6 1.8 4.3 1.8h85.7c1.7 0 3.1-.6 4.3-1.8 1.3-1.2 1.9-2.7 1.9-4.3z"/></symbol><symbol id="facebook" viewBox="0 0 100 100"><style>.st0{fill:#010101}</style><path class="st0" d="M73.6 1.1H60.9c-14.3 0-23.5 9.5-23.5 24.1v11.1H24.6c-1.1 0-2 .9-2 2v16.1c0 1.1.9 2 2 2h12.8v40.7c0 1.1.9 2 2 2H56c1.1 0 2-.9 2-2V56.4h15c1.1 0 2-.9 2-2V38.3c0-.5-.2-1-.6-1.4-.4-.4-.9-.6-1.4-.6H58v-9.4c0-4.5 1.1-6.8 7-6.8h8.6c1.1 0 2-.9 2-2v-15c0-1.1-.9-2-2-2z"/></symbol><symbol id="instagram" viewBox="0 0 100 100"><style>.st0{fill:#010101}</style><path class="st0" d="M86.4 1H13.6C6.7 1 1 6.1 1 13.6v72.8C1 93.9 6.7 99 13.6 99h72.8C93.3 99 99 93.9 99 86.4V13.6C99 6.1 93.3 1 86.4 1zM68 16.3c0-2.4 2-4.4 4.4-4.4h11.1c2.4 0 4.4 2 4.4 4.4v10.6c0 2.4-2 4.4-4.4 4.4H72.4c-2.4 0-4.4-2-4.4-4.4V16.3zM50.1 30.7c10.9 0 19.7 8.5 19.7 19.1S61 68.9 50.1 68.9c-10.9 0-19.7-8.5-19.7-19.1s8.8-19.1 19.7-19.1zm37.8 53.1c0 2.1-1.8 3.9-3.9 3.9H15.8c-2.1 0-3.9-1.8-3.9-3.9V42.4h9c-.8 2.7-1.3 5.5-1.3 8.4 0 16.3 13.6 29.5 30.5 29.5 16.8 0 30.5-13.2 30.5-29.5 0-2.9-.4-5.7-1.3-8.4h8.6v41.4z"/></symbol><symbol id="menu" viewBox="0 0 100 100"><style>.st0{fill:#010101}</style><path class="st0" d="M94.9 9.2H5.1c-2.5 0-4.1 1.6-4.1 4v8.2c0 2.5 1.6 4.1 4.1 4.1h89.8c2.4 0 4.1-1.6 4.1-4.1v-8.2c0-2.4-1.6-4-4.1-4zM94.9 41.8H5.1c-2.4 0-4.1 1.6-4.1 4.1v8.2c0 2.5 1.6 4.1 4.1 4.1h89.8c2.4 0 4.1-1.6 4.1-4.1v-8.2c0-2.4-1.6-4.1-4.1-4.1zM94.9 74.5H5.1c-2.4 0-4.1 1.6-4.1 4.1v8.2c0 2.5 1.6 4.1 4.1 4.1h89.8c2.4 0 4.1-1.6 4.1-4.1v-8.2c0-2.5-1.6-4.1-4.1-4.1z"/></symbol><symbol id="remove" viewBox="0 0 100 100"><style>.st0{fill:#010101}</style><path class="st0" d="M65.1 50l33.2-33.2c.8-.8.8-2.1 0-2.9L86.1 1.6c-.4-.4-.9-.6-1.5-.6-.5 0-1.1.2-1.4.6L50 34.8 16.7 1.6c-.8-.8-2.1-.8-2.9 0L1.6 13.8c-.8.8-.8 2.1 0 2.9L34.8 50 1.6 83.2c-.8.8-.8 2.1 0 2.9l12.3 12.3c.4.4.9.6 1.4.6.5 0 1.1-.2 1.4-.6L50 65.1l33.2 33.2c.4.4.9.6 1.4.6.5 0 1.1-.2 1.4-.6L98.3 86c.8-.8.8-2.1 0-2.9L65.1 50z"/></symbol><symbol id="twitter" viewBox="0 0 100 100"><style>.st0{fill:#040305}</style><path class="st0" d="M99 19.6c-3.6 1.6-7.5 2.7-11.5 3.2 4.2-2.5 7.3-6.4 8.8-11.1-3.9 2.3-8.2 4-12.8 4.9-3.7-3.9-8.9-6.4-14.7-6.4-11.1 0-20.1 9-20.1 20.1 0 1.6.2 3.1.5 4.6-16.6-.9-31.5-8.9-41.4-21-1.7 3-2.7 6.4-2.7 10.1 0 7 3.6 13.1 8.9 16.7-3.3-.1-6.4-1-9.1-2.5v.3c0 9.7 6.9 17.9 16.1 19.7-1.7.5-3.5.7-5.3.7-1.3 0-2.6-.1-3.8-.4 2.6 8 10 13.8 18.8 14-6.9 5.4-15.5 8.6-25 8.6-1.6 0-3.2-.1-4.8-.3 8.9 5.7 19.5 9 30.8 9 37 0 57.2-30.6 57.2-57.2V30c4-2.8 7.4-6.4 10.1-10.4z"/></symbol><symbol id="youtube" viewBox="0 0 100 100"><style>.st0{fill:#010101}</style><path class="st0" d="M29 39.4h5.9V18.7L42 1h-6.5l-3.8 13.2L27.9 1h-6.5L29 18.7zM60.7 36.6c.3.7.7 1.3 1.4 1.7.6.4 1.4.6 2.3.6.8 0 1.5-.2 2.2-.7.6-.5 1.2-1.1 1.6-2l-.1 2.2h6.3V11.6h-5v21c0 1.1-.9 2.1-2.1 2.1-1.1 0-2.1-.9-2.1-2.1v-21H60v18.2c0 2.3 0 3.9.1 4.6.1.8.3 1.5.6 2.2zM41.5 28.6c0 2.4.1 4.1.4 5.3.2 1.2.6 2.2 1.2 3 .6.8 1.3 1.5 2.3 1.9 1 .4 2.2.6 3.7.6 1.3 0 2.4-.2 3.4-.7 1-.5 1.8-1.2 2.4-2.2.6-1 1.1-2.1 1.2-3.3.2-1.2.3-3 .3-5.5v-6.8c0-2-.1-3.4-.3-4.4-.2-1-.6-1.9-1.2-2.8-.6-.9-1.4-1.6-2.4-2.2-1-.6-2.3-.9-3.8-.9-1.7 0-3.2.4-4.3 1.3-1.1.9-1.9 2-2.3 3.5-.4 1.5-.6 3.5-.6 6.1v7.1zm5-10.8c0-1.5 1.1-2.8 2.5-2.8s2.5 1.2 2.5 2.8v14.3c0 1.5-1.1 2.8-2.5 2.8s-2.5-1.2-2.5-2.8V17.8zM77.5 44.9h-55c-7.4 0-13.4 5.7-13.4 12.6v28.9c0 6.9 6 12.6 13.4 12.6h54.9c7.3 0 13.4-5.7 13.4-12.6V57.5c0-6.9-6-12.6-13.3-12.6zm-57 44.6V59h-5.7v-4.4H33v4.5h-6.8v30.4h-5.7zm21.6 0v-3.4c-1.2 2.6-6.1 4.7-8.7 2.9-1.4-1-1.3-2.7-1.5-4.2-.1-.8 0-2.7 0-5.1V63.6h5.6V80c0 2.2-.1 3.5 0 4 .8 2.5 2.9 1.1 3.3-.1.2-.4 0-1.6 0-3.9V63.6h5.7v25.9h-4.4zm13-2.4l-.4 2.2H50V54.6h5.7v10.1c5.2-4.2 9.1-1.1 9.1 4.1v13.5c0 6.5-3.8 10.2-9.7 4.8zm13.1-6.6v-8.1c0-2.4.2-4.3.7-5.7.5-1.4 1.3-2.4 2.4-3.2 3.4-2.5 10.2-1.7 10.9 3.1.2 1.5.3 4.2.3 6.9v3.7h-9.7v6.3c0 1.3 1.1 2.3 2.3 2.3h.9c1.3 0 2.3-1 2.3-2.3V81v-.6h4.3c1.9 11.6-14.4 13.5-14.4.1z"/><path class="st0" d="M58.1 66c-1.4 0-2.5.9-2.5 2v15.2c0 1.1 1.1 2 2.5 2s2.5-.9 2.5-2V68c0-1.1-1.2-2-2.5-2zM78.3 69.6c0-1.4-1.1-2.5-2.5-2.5h-.3c-1.4 0-2.5 1.1-2.5 2.5v3.1h5.4l-.1-3.1z"/></symbol></svg>